<svg xmlns="http://www.w3.org/2000/svg" width="375" viewBox="0 0 375 375" height="375" version="1.0"><defs><clipPath id="a"><path d="M 23.449219 39 L 225 39 L 225 351.199219 L 23.449219 351.199219 Z M 23.449219 39"/></clipPath><clipPath id="b"><path d="M 147 23.449219 L 351.199219 23.449219 L 351.199219 337 L 147 337 Z M 147 23.449219"/></clipPath></defs><g clip-path="url(#a)"><path fill="#E8524A" d="M 224.136719 203.367188 L 147.503906 203.367188 L 147.503906 235.152344 C 147.503906 243.550781 140.695312 250.363281 132.292969 250.363281 C 123.894531 250.363281 117.085938 243.550781 117.085938 235.152344 L 117.085938 111.265625 C 96.238281 130.308594 83.15625 157.703125 83.15625 188.160156 C 83.15625 245.664062 129.773438 292.289062 187.28125 292.289062 C 194.703125 292.289062 201.941406 291.503906 208.925781 290.027344 L 208.925781 320.570312 C 201.878906 321.710938 194.652344 322.316406 187.28125 322.316406 C 113.191406 322.316406 53.125 262.253906 53.125 188.160156 C 53.125 139.808594 78.71875 97.449219 117.085938 73.839844 L 117.085938 39.183594 C 61.710938 65.480469 23.421875 121.90625 23.421875 187.28125 C 23.421875 277.78125 96.785156 351.144531 187.28125 351.144531 C 199.953125 351.144531 212.289062 349.703125 224.136719 346.984375 L 224.136719 203.367188"/></g><g clip-path="url(#b)"><path fill="#2A2E30" d="M 187.28125 23.421875 C 173.5625 23.421875 160.238281 25.117188 147.503906 28.292969 L 147.503906 172.949219 L 224.136719 172.949219 L 224.136719 139.410156 C 224.136719 131.011719 230.945312 124.199219 239.34375 124.199219 C 247.746094 124.199219 254.554688 131.011719 254.554688 139.410156 L 254.554688 267.617188 C 277.09375 248.519531 291.410156 220.015625 291.410156 188.160156 C 291.410156 130.652344 244.789062 84.03125 187.28125 84.03125 C 178.816406 84.03125 170.59375 85.046875 162.710938 86.957031 L 162.710938 56.257812 C 170.679688 54.785156 178.890625 54.003906 187.28125 54.003906 C 261.375 54.003906 321.4375 114.066406 321.4375 188.160156 C 321.4375 237.730469 294.539062 281 254.554688 304.226562 L 254.554688 336.742188 C 311.503906 311.070312 351.144531 253.804688 351.144531 187.28125 C 351.144531 96.785156 277.78125 23.421875 187.28125 23.421875"/></g></svg>