<?xml version="1.0" encoding="utf-8"?>
<!-- Generator: Adobe Illustrator 26.0.3, SVG Export Plug-In . SVG Version: 6.00 Build 0)  -->
<svg version="1.1" id="Layer_1" xmlns="http://www.w3.org/2000/svg" xmlns:xlink="http://www.w3.org/1999/xlink" x="0px" y="0px"
	 viewBox="0 0 375 375" style="enable-background:new 0 0 375 375;" xml:space="preserve">
<style type="text/css">
	.st0{clip-path:url(#SVGID_00000068655408244285744280000004479967621338372238_);}
	.st1{fill:#F46530;}
	.st2{clip-path:url(#SVGID_00000067924802607255769820000004419016567872106626_);}
	.st3{fill:#2A2E30;}
</style>
<g>
	<defs>
		<rect id="SVGID_1_" x="129.9" y="135" width="71.1" height="110.4"/>
	</defs>
	<clipPath id="SVGID_00000037683071350295823500000000948870937882048408_">
		<use xlink:href="#SVGID_1_"  style="overflow:visible;"/>
	</clipPath>
	<g style="clip-path:url(#SVGID_00000037683071350295823500000000948870937882048408_);">
		<path class="st1" d="M200.6,193.3h-27v11.2c0,3-2.4,5.4-5.4,5.4s-5.4-2.4-5.4-5.4v-43.7c-7.3,6.7-12,16.4-12,27.1
			c0,20.3,16.4,36.7,36.7,36.7c2.6,0,5.2-0.3,7.6-0.8v10.8c-2.5,0.4-5,0.6-7.6,0.6c-26.1,0-47.3-21.2-47.3-47.3c0-17,9-32,22.5-40.3
			v-12.2c-19.5,9.3-33,29.2-33,52.2c0,31.9,25.9,57.7,57.7,57.7c4.5,0,8.8-0.5,13-1.5V193.3"/>
	</g>
</g>
<g>
	<defs>
		<rect id="SVGID_00000041283345150077948660000010417205376398044861_" x="173" y="129.9" width="72.4" height="111.1"/>
	</defs>
	<clipPath id="SVGID_00000088133245295589365860000012319443838299663285_">
		<use xlink:href="#SVGID_00000041283345150077948660000010417205376398044861_"  style="overflow:visible;"/>
	</clipPath>
	<g style="clip-path:url(#SVGID_00000088133245295589365860000012319443838299663285_);">
		<path class="st3" d="M187.7,129.9c-4.8,0-9.5,0.6-14,1.7v51h27v-11.8c0-3,2.4-5.4,5.4-5.4c3,0,5.4,2.4,5.4,5.4V216
			c7.9-6.7,13-16.8,13-28c0-20.3-16.4-36.7-36.7-36.7c-3,0-5.9,0.4-8.7,1v-10.8c2.8-0.5,5.7-0.8,8.7-0.8c26.1,0,47.3,21.2,47.3,47.3
			c0,17.5-9.5,32.7-23.6,40.9v11.5c20.1-9,34-29.2,34-52.7C245.4,155.8,219.6,129.9,187.7,129.9"/>
	</g>
</g>
</svg>
