<?xml version="1.0" encoding="UTF-8"?>
<svg xmlns="http://www.w3.org/2000/svg" viewBox="0 0 476 530.34">
  <defs>
    <style>
      .cls-1 {
        letter-spacing: .02em;
      }

      .cls-2, .cls-3, .cls-4 {
        fill: #fff;
      }

      .cls-3 {
        font-size: 31px;
        stroke-width: 2.25px;
      }

      .cls-3, .cls-4, .cls-5 {
        font-family: FranklinGothic-Heavy, 'Franklin Gothic Heavy';
      }

      .cls-3, .cls-6, .cls-7, .cls-8, .cls-9, .cls-10, .cls-11 {
        stroke-miterlimit: 10;
      }

      .cls-3, .cls-10 {
        stroke: #091538;
      }

      .cls-12 {
        letter-spacing: -.07em;
      }

      .cls-13 {
        letter-spacing: .02em;
      }

      .cls-4 {
        font-size: 46px;
      }

      .cls-6 {
        stroke-width: .75px;
      }

      .cls-6, .cls-7, .cls-11 {
        fill: none;
      }

      .cls-6, .cls-11 {
        stroke: #fff;
      }

      .cls-14, .cls-9 {
        fill: #071438;
      }

      .cls-5 {
        fill: #231f20;
        font-size: 17px;
        letter-spacing: -.02em;
      }

      .cls-7 {
        stroke: #071438;
      }

      .cls-7, .cls-10 {
        stroke-width: 3px;
      }

      .cls-15 {
        letter-spacing: 0em;
      }

      .cls-8, .cls-16 {
        fill: #0a3220;
      }

      .cls-8, .cls-9 {
        stroke: #d44e29;
        stroke-width: 7px;
      }

      .cls-17 {
        fill: #d54f2a;
      }

      .cls-18 {
        letter-spacing: -.02em;
      }

      .cls-10, .cls-19 {
        fill: #d44e29;
      }

      .cls-11 {
        stroke-width: 4px;
      }

      .cls-20 {
        letter-spacing: .03em;
      }
    </style>
  </defs>
  <g id="Layer_1" data-name="Layer 1">
    <path class="cls-19" d="M200.15,31.97l-54.39,9.94s-9.57,.85-15.68-6.67-13.06-17.45-13.06-17.45c0,0-2.57-5.06,.99-11.61S126.97,0,126.97,0l75.04,1.77s9.03-.23,13.79,7.02c4.77,7.25,19.65,32.36,19.65,32.36l-22.22,12.94-13.09-22.12Z"/>
    <path class="cls-19" d="M269.48,32.05l54.39,9.94s9.57,.85,15.68-6.67,13.06-17.45,13.06-17.45c0,0,2.57-5.06-.99-11.61-3.56-6.56-8.96-6.17-8.96-6.17l-75.04,1.77s-9.03-.23-13.79,7.02c-4.77,7.25-19.65,32.36-19.65,32.36l22.22,12.94,13.09-22.12Z"/>
  </g>
  <g id="badge">
    <path class="cls-9" d="M105,260.28s4.63,8.82,6.08,18.51l5.5,18.81s7.82,16.75,18.54,19.98c0,0,8.55,5.29,19.26,6.47,0,0,28.82,8.08,44.46,18.22l22.74,13.22s13.47,4.56,26.65,0c0,0,35.92-21.45,42.29-22.19,0,0,1.88-1.47,16.37-6.76l9.27-3.09s15.35-1.62,26.36-11.17c0,0,9.99-9.99,13.76-25.42s7.82-29.57,7.82-29.57"/>
    <path class="cls-8" d="M386.78,185.75l-21.31-33.44s-4.74-9.79-6.22-20.55l-5.63-20.88s-8-18.6-18.96-22.19c0,0-8.74-5.87-19.7-7.18,0,0-29.48-8.97-45.48-20.23l-23.26-14.68s-13.78-5.06-27.26,0c0,0-36.74,23.82-43.26,24.63,0,0-1.93,1.63-16.74,7.5l-9.48,3.43s-15.7,1.79-26.96,12.4c0,0-10.22,11.09-14.07,28.22s-8,32.83-8,32.83l-18.54,30.14H23.22s-2.22,1.04-2.07,3.7v65.78s.59,3.7,4.44,4H106.04"/>
    <path class="cls-9" d="M79.57,185.75l21.31-33.44s4.74-9.79,6.22-20.55l5.63-20.88s8-18.6,18.96-22.19c0,0,8.74-5.87,19.7-7.18,0,0,29.48-8.97,45.48-20.23l23.26-14.68s13.78-5.06,27.26,0c0,0,36.74,23.82,43.26,24.63,0,0,1.93,1.63,16.74,7.5l9.48,3.43s15.7,1.79,26.96,12.4c0,0,10.22,11.09,14.07,28.22,3.85,17.13,8,32.83,8,32.83l18.54,30.14h58.67s2.22,1.04,2.07,3.7v65.78s-.59,3.7-4.44,4h-78.67s-1.78,0-1.78,0"/>
    <circle class="cls-8" cx="105.3" cy="259.12" r="1.33"/>
    <circle class="cls-8" cx="363.52" cy="259.38" r="1.33"/>
    <circle class="cls-8" cx="81.48" cy="184.57" r="1.33"/>
    <circle class="cls-8" cx="382.52" cy="184.64" r="1.33"/>
    <path class="cls-16" d="M112.26,253.54c-.37,2.1-.34,4.21,.21,6.28s1.56,3.89,2.89,5.52c.38,.47,1.19,.73,1.77,.73,.61,0,1.35-.27,1.77-.73,.99-1.08,.89-2.45,0-3.54-.17-.21-.13-.16,.11,.15-.06-.08-.12-.16-.18-.24-.12-.16-.23-.33-.34-.5-.22-.34-.42-.69-.6-1.05-.08-.16-.14-.41-.26-.55l.13,.32c-.04-.09-.07-.19-.11-.28-.14-.38-.26-.76-.37-1.15s-.18-.79-.25-1.19c-.09-.54,.05,.61,.01,.06-.01-.2-.04-.4-.05-.6-.02-.4-.02-.81,0-1.21,.01-.2,.03-.4,.05-.6,.03-.27,.02-.2-.03,.21,.02-.1,.03-.2,.05-.3,.12-.68,.11-1.31-.25-1.93-.3-.52-.9-1.01-1.49-1.15-1.22-.28-2.84,.37-3.08,1.75h0Z"/>
    <path class="cls-16" d="M113,262.25c3.22,0,3.22-5,0-5s-3.22,5,0,5h0Z"/>
    <path class="cls-16" d="M112.56,262.25c3.22,0,3.22-5,0-5s-3.22,5,0,5h0Z"/>
    <path class="cls-16" d="M112.7,260.99c3.22,0,3.22-5,0-5s-3.22,5,0,5h0Z"/>
    <path class="cls-16" d="M112.63,262.1c3.22,0,3.22-5,0-5s-3.22,5,0,5h0Z"/>
    <path class="cls-16" d="M112.48,262.47c3.22,0,3.22-5,0-5s-3.22,5,0,5h0Z"/>
    <path class="cls-16" d="M112.63,261.29c3.22,0,3.22-5,0-5s-3.22,5,0,5h0Z"/>
    <path class="cls-16" d="M112.56,260.47c3.22,0,3.22-5,0-5s-3.22,5,0,5h0Z"/>
    <path class="cls-16" d="M112.41,262.99c3.22,0,3.22-5,0-5s-3.22,5,0,5h0Z"/>
    <path class="cls-16" d="M112.63,261.36c3.22,0,3.22-5,0-5s-3.22,5,0,5h0Z"/>
    <path class="cls-16" d="M112.63,260.92c3.22,0,3.22-5,0-5s-3.22,5,0,5h0Z"/>
    <path class="cls-16" d="M124.79,261.59c-.14-.17-.27-.33-.4-.5l.39,.51c-1.1-1.43-2.02-2.99-2.73-4.65l.25,.6c-.32-.75-.59-1.52-.82-2.3-.37-1.25-1.77-2.17-3.08-1.75s-2.14,1.73-1.75,3.08c.94,3.16,2.51,6.02,4.6,8.56,.38,.47,1.19,.73,1.77,.73,.61,0,1.35-.27,1.77-.73s.76-1.1,.73-1.77c-.03-.7-.29-1.23-.73-1.77h0Z"/>
    <path class="cls-16" d="M121.22,258.5c-.23-.1-.45-.23-.65-.39l.51,.39c-.22-.17-.41-.36-.58-.58l.39,.51c-.06-.08-.11-.16-.17-.24-.16-.29-.37-.53-.64-.7-.24-.22-.52-.37-.85-.45-.33-.1-.66-.12-1-.04-.33,.02-.64,.11-.93,.3l-.51,.39c-.31,.31-.52,.68-.64,1.1l-.09,.66c0,.45,.12,.87,.34,1.26,.04,.07,.09,.14,.14,.2,.17,.23,.34,.46,.52,.67,.1,.12,.22,.23,.34,.34,.21,.19,.44,.35,.67,.52,.06,.05,.13,.09,.19,.13,.14,.09,.28,.17,.43,.23,.29,.18,.6,.28,.93,.3,.33,.07,.66,.06,1-.04,.33-.08,.61-.23,.85-.45,.27-.18,.49-.41,.64-.7l.25-.6c.12-.44,.12-.89,0-1.33l-.25-.6c-.22-.38-.52-.67-.9-.9h0Z"/>
    <path class="cls-16" d="M125.82,260.18c-.44-.43-.85-.88-1.22-1.36l.39,.51c-.66-.86-1.21-1.8-1.63-2.8l.25,.6c-.19-.46-.35-.93-.59-1.37s-.57-.77-.87-1.15l.39,.51c-.05-.07-.1-.14-.14-.22l.25,.6c-.02-.05-.04-.11-.05-.16l.09,.66v-.09c-.06-.67-.25-1.28-.74-1.77-.43-.43-1.15-.76-1.77-.73s-1.32,.24-1.77,.73c-.43,.47-.79,1.11-.73,1.77,.05,.6,.16,1.15,.49,1.67,.21,.33,.49,.62,.74,.93l-.39-.51c.14,.19,.24,.39,.33,.6l-.25-.6c.45,1.06,.88,2.11,1.51,3.08s1.35,1.86,2.17,2.65c.46,.45,1.12,.73,1.77,.73,.61,0,1.35-.27,1.77-.73,.9-.99,1-2.56,0-3.54h0Z"/>
    <path class="cls-16" d="M110.11,260.99c.73-.13,1.48-.18,2.22-.15,.02,0,.03-2.31,.02-2.5,0-.59,0-1.18,0-1.77,0-.07,0-.73-.02-.73-.74-.03-1.49,.03-2.22,.15-.02,0-.02,.84-.02,.73,0,.59,0,1.18,0,1.77s0,1.18,0,1.77c0,.07,.02,.73,.02,.73h0Z"/>
    <path class="cls-16" d="M121.82,259.34l2.3,.09s.03-2.31,.02-2.5c0-.59,0-1.18,0-1.77,0-.07,0-.73-.02-.73l-2.3-.09s-.03,2.31-.02,2.5c0,.59,0,1.18,0,1.77,0,.07,0,.73,.02,.73h0Z"/>
    <path class="cls-16" d="M122.93,261.6l2.37-.09s.03-2.31,.02-2.5-.01-2.5-.02-2.5l-2.37,.09s-.03,2.31-.02,2.5,.01,2.5,.02,2.5h0Z"/>
    <path class="cls-16" d="M123.88,259.67l.3,.15c0-.07,.01-.14,0-.22,0-.17,0-.34,0-.52,0-.59,0-1.18,0-1.77s0-1.18,0-1.77v-.39c0-.11,0-.23-.02-.34l-.3-.15c0,.07-.01,.14,0,.22,0,.17,0,.34,0,.52,0,.59,0,1.18,0,1.77s0,1.18,0,1.77v.39c0,.11,0,.23,.02,.34h0Z"/>
    <path class="cls-16" d="M124.22,263.14c3.22,0,3.22-5,0-5s-3.22,5,0,5h0Z"/>
    <path class="cls-16" d="M123.89,262.14c3.22,0,3.22-5,0-5s-3.22,5,0,5h0Z"/>
    <path class="cls-16" d="M122.74,259.51c3.22,0,3.22-5,0-5s-3.22,5,0,5h0Z"/>
    <path class="cls-16" d="M122.26,258.62c3.22,0,3.22-5,0-5s-3.22,5,0,5h0Z"/>
    <path class="cls-16" d="M122.15,258.4c3.22,0,3.22-5,0-5s-3.22,5,0,5h0Z"/>
    <path class="cls-16" d="M122.44,258.99c3.22,0,3.22-5,0-5s-3.22,5,0,5h0Z"/>
    <path class="cls-16" d="M122.93,259.92c3.22,0,3.22-5,0-5s-3.22,5,0,5h0Z"/>
    <path class="cls-16" d="M123.15,260.29c3.22,0,3.22-5,0-5s-3.22,5,0,5h0Z"/>
    <path class="cls-16" d="M123.67,261.36c3.22,0,3.22-5,0-5s-3.22,5,0,5h0Z"/>
    <path class="cls-16" d="M123.41,260.81c3.22,0,3.22-5,0-5s-3.22,5,0,5h0Z"/>
    <path class="cls-16" d="M124.63,262.99c3.22,0,3.22-5,0-5s-3.22,5,0,5h0Z"/>
    <path class="cls-16" d="M124.3,262.36c3.22,0,3.22-5,0-5s-3.22,5,0,5h0Z"/>
    <path class="cls-16" d="M345.06,253.8c-.76,.49-1.49,1.05-2.13,1.68s-1.21,1.36-1.71,2.11l-.25,.6c-.1,.33-.12,.66-.04,1,0,.23,.06,.44,.17,.63,.1,.31,.27,.58,.52,.8,.32,.29,.69,.51,1.1,.64,.33,.1,.66,.12,1,.04,.33-.02,.64-.11,.93-.3,.31-.19,.6-.42,.88-.65,.13-.11,.25-.22,.37-.35,.35-.39,.69-.83,.93-1.3s.45-.97,.55-1.48,.19-1.1,.12-1.64l-.09-.66c-.08-.33-.23-.61-.45-.85-.11-.19-.26-.34-.45-.45-.24-.22-.52-.37-.85-.45-.44-.1-.89-.1-1.33,0-.61,.14-1.17,.63-1.49,1.15-.48,.76-.95,1.52-1.43,2.28h4.32s-.04-.05-.05-.09l.25,.6s-.02-.06-.02-.09l.09,.66s0-.06,0-.09l-.09,.66s.01-.06,.03-.09l-.25,.6c.02-.05,.05-.1,.08-.14l-.39,.51s.06-.07,.1-.1l-.51,.39s.07-.05,.11-.07l-.6,.25s.08-.03,.12-.04l-.66,.09s.06,0,.09,0l-.66-.09s.06,.01,.09,.03l-.6-.25s.04,.02,.06,.03c.29,.18,.6,.28,.93,.3,.33,.07,.66,.06,1-.04,.33-.08,.61-.23,.85-.45,.27-.18,.49-.41,.64-.7,.31-.58,.46-1.28,.25-1.93l-.25-.6c-.22-.38-.52-.67-.9-.9-.02-.01-.04-.03-.06-.03l-.6-.25s-.06-.02-.09-.03c-.42-.12-1.04-.12-1.45,0-.03,0-.06,.02-.09,.03-.19,.07-.47,.17-.64,.27-.22,.14-.45,.31-.64,.5-.15,.15-.3,.37-.42,.54-.02,.03-.04,.05-.06,.08-.13,.24-.23,.49-.31,.75-.12,.43-.13,1.02,0,1.45,.04,.13,.08,.21,.14,.36,.05,.12,.1,.27,.18,.38,.22,.38,.52,.67,.9,.9,.39,.23,.81,.34,1.26,.34,.9,0,1.69-.48,2.16-1.24s.95-1.52,1.43-2.28l-4.66-1.26c.03,.27,.03,.54,0,.81l.09-.66c-.04,.3-.12,.59-.24,.88l.25-.6c-.12,.28-.28,.54-.46,.78l.39-.51c-.17,.21-.36,.41-.58,.57l.51-.39c-.1,.08-.21,.15-.32,.22l3.42,3.42c.14-.21,.29-.42,.45-.62l-.39,.51c.52-.66,1.11-1.26,1.78-1.77l-.51,.39c.23-.18,.47-.35,.72-.5,.54-.35,.98-.86,1.15-1.49,.1-.33,.12-.66,.04-1-.02-.33-.11-.64-.3-.93-.34-.53-.86-1-1.49-1.15s-1.36-.11-1.93,.25h0Z"/>
    <path class="cls-16" d="M349.71,253.76l-2.52,3.94c-.34,.53-.42,1.33-.25,1.93s.61,1.21,1.15,1.49c.58,.31,1.28,.46,1.93,.25s1.13-.58,1.49-1.15l2.52-3.94c.34-.53,.42-1.33,.25-1.93s-.61-1.21-1.15-1.49c-.58-.31-1.28-.46-1.93-.25s-1.13,.58-1.49,1.15h0Z"/>
    <path class="cls-16" d="M344.22,258.81c3.22,0,3.22-5,0-5s-3.22,5,0,5h0Z"/>
    <path class="cls-16" d="M344.22,258.81c3.22,0,3.22-5,0-5s-3.22,5,0,5h0Z"/>
    <path class="cls-16" d="M344.22,258.47c3.22,0,3.22-5,0-5s-3.22,5,0,5h0Z"/>
    <path class="cls-16" d="M343.89,259.36c3.22,0,3.22-5,0-5s-3.22,5,0,5h0Z"/>
    <path class="cls-16" d="M343,260.92c3.22,0,3.22-5,0-5s-3.22,5,0,5h0Z"/>
    <path class="cls-16" d="M343.89,259.25c3.22,0,3.22-5,0-5s-3.22,5,0,5h0Z"/>
  </g>
  <g id="circles">
    <circle class="cls-19" cx="234.81" cy="202.19" r="122.11"/>
    <circle class="cls-11" cx="236.15" cy="203.82" r="109.04"/>
  </g>
  <g id="Layer_4" data-name="Layer 4">
    <rect class="cls-14" x="24.26" y="188.42" width="417.78" height="69.04"/>
    <path class="cls-14" d="M121.28,265.45v-2.96c0-.64-.28-1.31-.73-1.77-.23-.24-.49-.42-.8-.52-.3-.16-.62-.23-.96-.22-.65,.03-1.32,.24-1.77,.73s-.73,1.09-.73,1.77v2.96c0,.64,.28,1.31,.73,1.77,.23,.24,.49,.42,.8,.52,.3,.16,.62,.23,.96,.22,.65-.03,1.32-.24,1.77-.73s.73-1.09,.73-1.77h0Z"/>
    <path class="cls-14" d="M116.49,262.01l-.09,.02,.66-.09c-.06,0-.11,0-.17,0l.66,.09c-.09-.01-.16-.04-.24-.07l.6,.25c-.11-.05-.2-.11-.3-.18l.51,.39c-.52-.42-.97-.93-1.58-1.24-.69-.35-1.41-.46-2.12-.73l.6,.25c-.22-.1-.42-.21-.62-.36l.51,.39c-.22-.17-.4-.36-.58-.58l.39,.51c-.21-.28-.38-.57-.52-.89l.25,.6c-.2-.48-.32-.98-.39-1.49l.09,.66c-.08-.68-.09-1.37-.09-2.06,0-1.31-1.15-2.56-2.5-2.5s-2.5,1.1-2.5,2.5c0,1.81,.11,3.68,1.05,5.28,.49,.83,1.16,1.53,1.97,2.05,.75,.48,1.61,.58,2.42,.9l-.6-.25c.17,.07,.32,.16,.47,.27l-.51-.39c.44,.35,.82,.76,1.29,1.07,.8,.54,1.72,.61,2.64,.43,.59-.11,1.2-.65,1.49-1.15,.31-.54,.45-1.33,.25-1.93s-.57-1.19-1.15-1.49c-.62-.33-1.24-.38-1.93-.25h0Z"/>
    <path class="cls-14" d="M111.25,257.16c.12,1.03,.39,1.93,1.03,2.76,.29,.38,.59,.75,.91,1.11,.11,.12,.21,.24,.32,.36,.05,.06,.1,.12,.15,.18,.2,.23-.27-.43-.1-.11,.85,1.59,1.83,3.08,3.01,4.45,.54,.64,1.12,1.24,1.7,1.84s1.24,1.32,2.02,1.73c1.24,.65,2.75,.78,4,.05,1.13-.66,1.75-1.89,1.82-3.18,.11-2.13-1.52-3.62-2.86-5.04-.65-.69-1.29-1.38-1.94-2.07-.3-.32-.6-.64-.9-.95-.14-.15-.29-.3-.43-.46-.06-.06-.11-.13-.17-.19-.25-.28,0,.08,.07,.09-.06-.01-.4-.68-.2-.3,.15,.28,.06,.09,.03,0,.05,.18,.07,.35,.04,.53-.03,.28-.24,.68-.44,.89l-1.31,.03c-1.23-.28-1.64-.25-1.24,.09,.13,.16,.32,.29,.47,.44,.26,.26,.51,.53,.75,.8,.09,.11,.86,.89,.82,.99,0,0-.28-.37-.11-.14,.06,.07,.11,.15,.17,.22,.11,.15,.22,.29,.33,.44,.24,.32,.47,.65,.71,.97,.56,.77,1.13,1.53,1.72,2.27,.26,.33,.53,.68,.83,.97,.82,.79,2.01,1.11,3.08,.66,1.4-.59,2.1-2.21,2.08-3.67-.02-1.12-.4-2.25-1.05-3.16-.36-.5-.76-.98-1.19-1.42-.15-.16-.31-.31-.46-.47-.06-.07-.13-.14-.19-.2-.1-.11-.09-.09,.04,.06,.46,.52,.48,1.18,.09,1.99l-3.93,.51c.13,.14,.27,.28,.4,.42l.13,.15c.15,.18,.16,.2,.05,.05-.09-.13-.1-.13-.02-.02,.06,.08,.11,.16,.17,.23,.11,.16,.22,.32,.32,.48,.7,1.1,2.26,1.65,3.42,.9,1.1-.71,1.65-2.24,.9-3.42-.53-.83-1.14-1.62-1.82-2.33-.55-.57-1.33-.79-2.1-.69-.83,.11-1.34,.54-1.83,1.19-.7,.94-.53,2.39,.1,3.32,.41,.61,.97,1.1,1.46,1.64,.04,.04,.32,.32,.31,.35,0-.02-.27-.4-.05-.06,.08,.12,.15,.27,.24,.39,.16,.22-.12-.49-.02-.06,.02,.09,.1,.57,.06,.16-.05-.47-.01,.16-.01,.16l.05-.34-.04,.16c-.07,.2-.07,.2,0,0,.1-.33,.33-.59,.68-.76l1.26-.34h-.15c.42,.11,.84,.22,1.26,.34,.52,.31,.16,.1,0-.08-.08-.09-.16-.19-.24-.28-.1-.12-.19-.24-.29-.36l-.06-.07c-.17-.22-.15-.19,.05,.07-.21-.15-.4-.53-.55-.74-.18-.25-.36-.5-.54-.74-.81-1.11-1.62-2.23-2.53-3.27-.4-.46-.82-.9-1.28-1.31-1.07-.93-2.46-1.33-3.77-.57-1.92,1.11-2.09,3.67-.95,5.39,.82,1.25,1.98,2.31,3.01,3.39,.47,.5,.95,1.01,1.42,1.51,.25,.26,.5,.53,.75,.79,.08,.08,.16,.17,.23,.25,.08,.08,.15,.17,.23,.26-.19-.26-.24-.32-.13-.17,.03,.05,.24,.33,.22,.36-.04,.06-.15-.51-.08-.15l-.04-.38c0,.1,0,.19,0,.29-.09-.15,.15-.63,.19-.71l-.07,.12c.12-.24,.3-.41,.56-.49l.35-.2c.39-.02,.44-.03,.16-.03l.32,.03,.27,.13c-.1-.05-.2-.11-.3-.17,.25,.21,.31,.25,.17,.13-.92-.9-1.82-1.82-2.66-2.8-.21-.24-.42-.49-.61-.74,.38,.5,0-.03-.07-.11-.11-.16-.22-.31-.32-.48-.39-.6-.69-1.25-1.06-1.86-.4-.66-.92-1.24-1.43-1.81-.02-.03-.3-.37-.31-.36,.05-.02,.35,.52,.02,0,0,.01-.14-.26-.15-.26,.14,.37,.17,.43,.08,.18-.06-.26-.06-.19,0,.22-.08-.69-.23-1.26-.73-1.77-.43-.43-1.15-.76-1.77-.73-1.22,.05-2.66,1.11-2.5,2.5h0Z"/>
    <path class="cls-14" d="M123.89,261.31c3.22,0,3.22-5,0-5s-3.22,5,0,5h0Z"/>
    <path class="cls-14" d="M124.78,263.03c3.22,0,3.22-5,0-5s-3.22,5,0,5h0Z"/>
    <path class="cls-14" d="M124.28,262.19c3.22,0,3.22-5,0-5s-3.22,5,0,5h0Z"/>
    <path class="cls-14" d="M125.06,263.69c3.22,0,3.22-5,0-5s-3.22,5,0,5h0Z"/>
    <path class="cls-14" d="M350.24,256.75c-.07,.2-.14,.39-.22,.58l.25-.6c-.3,.69-.67,1.33-1.12,1.92l.39-.51c-.46,.59-.98,1.12-1.57,1.58l.51-.39c-.3,.23-.6,.44-.92,.63l3.03,.39-.06-.08,.64,1.1c-.03-.06-.05-.12-.05-.18l.09,.66v-.1c-.02,.22-.05,.44-.08,.66,.01-.07,.03-.14,.06-.21l-.25,.6c.39-.9,.97-1.73,1.42-2.6s.74-1.81,.48-2.78c-.22-.85-.77-1.63-1.56-2.03-1.2-.61-2.53-.37-3.52,.51-.43,.38-.75,.88-1.06,1.36-.54,.81-.99,1.66-1.58,2.44l.39-.51c-.33,.42-.7,.81-1.12,1.14l.51-.39c-.26,.2-.53,.36-.83,.5l.6-.25c-.23,.09-.45,.17-.69,.22l2.43,4.18c1.19-1.48,2.08-3.02,2.76-4.79,.22-.57,.05-1.42-.25-1.93s-.9-1.01-1.49-1.15c-.64-.15-1.36-.11-1.93,.25s-.9,.85-1.15,1.49c-.07,.17-.13,.34-.2,.51l.25-.6c-.46,1.06-1.04,2.05-1.74,2.96l.39-.51c-.06,.07-.11,.14-.17,.22-.36,.44-.61,.85-.69,1.44-.07,.53,0,1.13,.3,1.59,.63,.97,1.7,1.39,2.82,1.15,1.42-.31,2.73-1.24,3.63-2.36s1.59-2.44,2.45-3.61l-.39,.51c.09-.12,.19-.23,.31-.32l-.51,.39c.06-.04,.12-.08,.19-.1l-.6,.25,.1-.03-.66,.09h.11c-.22-.03-.44-.06-.66-.09l.1,.02-.6-.25c.06,.02,.12,.05,.17,.09l-.51-.39,.07,.07-.39-.51c.04,.05,.08,.11,.11,.17l-.25-.6c.03,.06,.05,.13,.06,.2l-.09-.66c.01,.08,0,.16,0,.23l.09-.66c-.03,.13-.06,.25-.11,.38l.25-.6c-.35,.74-.79,1.45-1.19,2.17-.25,.45-.52,.92-.65,1.42-.27,1.07,.04,2.02,.74,2.84s2.14,.92,3.03,.39c2.37-1.42,4.08-3.61,4.99-6.21,.43-1.24-.49-2.79-1.75-3.08-1.39-.32-2.61,.42-3.08,1.75h0Z"/>
    <path class="cls-14" d="M344.09,257.68c-.1,.4-.23,.79-.39,1.18l.25-.6c-.27,.63-.61,1.22-1.03,1.77l.39-.51c-.23,.29-.48,.57-.74,.83-.46,.45-.73,1.13-.73,1.77s.27,1.35,.73,1.77,1.1,.76,1.77,.73,1.28-.26,1.77-.73c.67-.66,1.27-1.43,1.74-2.24,.28-.49,.5-1.02,.71-1.55,.14-.35,.26-.72,.35-1.09,.16-.64,.08-1.35-.25-1.93-.3-.52-.9-1.01-1.49-1.15-.64-.15-1.36-.11-1.93,.25s-.99,.85-1.15,1.49h0Z"/>
    <path class="cls-14" d="M343.85,259.3v.07c-.02-.22-.05-.44-.08-.66,0,.04,0,.09,0,.13l.09-.66c-.02,.09-.04,.18-.08,.26l.25-.6c-.31,.64-.73,1.25-1.11,1.85s-.78,1.25-1.18,1.87c-.34,.53-.42,1.33-.25,1.93s.61,1.21,1.15,1.49c.58,.31,1.28,.46,1.93,.25s1.13-.58,1.49-1.15c.47-.73,.94-1.47,1.39-2.21,.23-.37,.45-.74,.68-1.12,.2-.34,.37-.67,.5-1.05,.2-.59,.15-1.13,.04-1.73s-.65-1.2-1.15-1.49c-.54-.31-1.33-.45-1.93-.25s-1.19,.57-1.49,1.15l-.25,.6c-.12,.44-.12,.89,0,1.33h0Z"/>
    <path class="cls-14" d="M345.69,261.61c3.22,0,3.22-5,0-5s-3.22,5,0,5h0Z"/>
    <path class="cls-14" d="M345.06,262.75c3.22,0,3.22-5,0-5s-3.22,5,0,5h0Z"/>
    <path class="cls-14" d="M345.47,261.97c3.22,0,3.22-5,0-5s-3.22,5,0,5h0Z"/>
    <path class="cls-14" d="M345.89,261.19c3.22,0,3.22-5,0-5s-3.22,5,0,5h0Z"/>
    <path class="cls-14" d="M344.39,264.08c3.22,0,3.22-5,0-5s-3.22,5,0,5h0Z"/>
    <path class="cls-14" d="M344.72,263.53c3.22,0,3.22-5,0-5s-3.22,5,0,5h0Z"/>
    <path class="cls-14" d="M344.22,264.42c3.22,0,3.22-5,0-5s-3.22,5,0,5h0Z"/>
    <path class="cls-14" d="M344.89,263.19c3.22,0,3.22-5,0-5s-3.22,5,0,5h0Z"/>
    <path class="cls-14" d="M379.39,183.39c-.72-.11-1.44-.15-2.17-.14-.04,0-.03,2.31-.02,2.5s0,2.5,.02,2.5c.73-.01,1.45,.04,2.17,.14,0,0,.02-.85,.02-.73,0-.59,0-1.18,0-1.77s0-1.18,0-1.77c0-.08,.01-.73-.02-.73h0Z"/>
    <path class="cls-14" d="M377.8,187.05c.38,.52,.86,.97,1.41,1.32,0-.07,.01-.14,0-.22,0-.17,0-.34,0-.52,0-.59,0-1.18,0-1.77s0-1.18,0-1.77v-.39c0-.11,0-.23-.02-.34-.55-.35-1.03-.8-1.41-1.32,0,.07-.01,.14,0,.22,0,.17,0,.34,0,.52,0,.59,0,1.18,0,1.77s0,1.18,0,1.77v.39c0,.11,0,.23,.02,.34h0Z"/>
    <path class="cls-14" d="M377.16,186.85c.66,.31,1.12,.92,1.76,1.26,0-.07,.01-.14,0-.22,0-.17,0-.34,0-.52,0-.59,0-1.18,0-1.77s0-1.18,0-1.77v-.39c0-.11,0-.23-.02-.34-.64-.34-1.1-.95-1.76-1.26,0,.07-.01,.14,0,.22,0,.17,0,.34,0,.52,0,.59,0,1.18,0,1.77s0,1.18,0,1.77v.39c0,.11,0,.23,.02,.34h0Z"/>
    <path class="cls-14" d="M377.99,187.1c.5,.38,.83,.97,1.4,1.27,0-.07,.01-.14,0-.22,0-.17,0-.34,0-.52,0-.59,0-1.18,0-1.77s0-1.18,0-1.77v-.39c0-.11,0-.23-.02-.34-.57-.3-.9-.88-1.4-1.27,0,.07-.01,.14,0,.22,0,.17,0,.34,0,.52,0,.59,0,1.18,0,1.77s0,1.18,0,1.77v.39c0,.11,0,.23,.02,.34h0Z"/>
    <path class="cls-14" d="M90.07,185.56c-1.01,0-2.03,0-3.04,.01-.06,0-.01,5,0,5,1.01-.01,2.02-.02,3.04-.01,.02,0,.05-5,0-5h0Z"/>
    <path class="cls-14" d="M84.41,188.26c1.02,.13,2.04,.22,3.07,.27,.01,0,.03-2.31,.02-2.5,0-.59,0-1.18,0-1.77,0-.07,0-.73-.02-.73-1.03-.06-2.05-.15-3.07-.27,0,0-.02,.85-.02,.73,0,.59,0,1.18,0,1.77s0,1.18,0,1.77c0,.07,0,.73,.02,.73h0Z"/>
    <path class="cls-14" d="M84.37,189.32c.85,.04,1.7,.05,2.56,.04,.07,0,0-5,0-5-.85,.02-1.7,0-2.56-.04-.01,0-.03,2.31-.02,2.5,0,.59,0,1.18,0,1.77,0,.07,0,.73,.02,.73h0Z"/>
    <path class="cls-14" d="M86.38,181.86c-.5,.55-.98,1.12-1.44,1.71,0,.07-.01,.14,0,.22,0,.17,0,.34,0,.52,0,.59,0,1.18,0,1.77s0,1.18,0,1.77v.39c0,.11,0,.23,.02,.34,.45-.59,.93-1.16,1.44-1.71,0-.07,.01-.14,0-.22,0-.17,0-.34,0-.52,0-.59,0-1.18,0-1.77s0-1.18,0-1.77v-.39c0-.11,0-.23-.02-.34h0Z"/>
    <path class="cls-17" d="M85.11,183.2c-.32-.07-.64-.09-.96-.06,0,.07-.01,.14,0,.22,0,.17,0,.34,0,.52,0,.59,0,1.18,0,1.77s0,1.18,0,1.77c0,.07,.01,.73,.02,.73,.32-.03,.65,0,.96,.06,0-.07,.01-.14,0-.22,0-.17,0-.34,0-.52,0-.59,0-1.18,0-1.77s0-1.18,0-1.77v-.39c0-.11,0-.23-.02-.34h0Z"/>
    <path class="cls-17" d="M84.35,188.36c.25,.04,.51,.06,.77,.06,.02,0,.03-2.31,.02-2.5,0-.59,0-1.18,0-1.77,0-.07,0-.73-.02-.73-.26,0-.51-.03-.77-.06,0,.07-.01,.14,0,.22,0,.17,0,.34,0,.52,0,.59,0,1.18,0,1.77s0,1.18,0,1.77v.39c0,.11,0,.23,.02,.34h0Z"/>
    <path class="cls-17" d="M84.34,188.34c.12,.04,.25,.05,.38,.03,0-.07,.01-.14,0-.22,0-.17,0-.34,0-.52,0-.59,0-1.18,0-1.77s0-1.18,0-1.77v-.39c0-.11,0-.23-.02-.34-.13,.02-.26,.01-.38-.03,0,.07-.01,.14,0,.22,0,.17,0,.34,0,.52,0,.59,0,1.18,0,1.77s0,1.18,0,1.77v.39c0,.11,0,.23,.02,.34h0Z"/>
    <g>
      <path class="cls-10" d="M156.6,189.59h-14.22L260.01,13.3s2.3-5.15,8.19-5.15h74.11s8,2-.11,11.11l-10,11.11s-2.22,3.22-10.89,1.44l-44.78-8.67s-7.89-2.44-13.44,3.89l-106.48,162.56Z"/>
      <path class="cls-10" d="M313.17,189.87h.74s1.04,0,1.04,0h12.44S209.77,13.57,209.77,13.57c0,0-2.3-5.15-8.19-5.15-5.89,0-74.11,0-74.11,0,0,0-8,2,.11,11.11l10,11.11s2.22,3.22,10.89,1.44l44.78-8.67s7.89-2.44,13.44,3.89l106.48,162.56Z"/>
    </g>
    <polygon class="cls-2" points="141.22 9.91 149.37 30.31 162.3 27.87 155.89 9.98 141.22 9.91"/>
    <polygon class="cls-2" points="328.95 9.66 320.79 30.16 307.87 27.71 314.28 9.73 328.95 9.66"/>
    <polygon class="cls-2" points="155.9 172.06 162.64 177.58 165.81 172.77 159.06 167.33 155.9 172.06"/>
    <polygon class="cls-2" points="313.95 172.39 307 177.7 303.86 172.94 310.8 167.71 313.95 172.39"/>
  </g>
  <g id="puck">
    <path class="cls-14" d="M236.89,156.31s-35.44-.33-35.56,8c-.11,8.33-.22,18.22-.22,18.22,0,0,4.11,7.89,34.67,7.33s33.22-5.67,33.22-5.67l-.33-21.78s-.33-5.33-31.78-6.11Z"/>
    <g>
      <path class="cls-6" d="M235,159.97s-42.89,2.44-8.89,9.56"/>
      <path class="cls-6" d="M244.22,159.97s36.11,7.78-9.22,9.67"/>
      <path class="cls-6" d="M203,167.64s18,12.11,55,5.33"/>
    </g>
    <g>
      <path class="cls-7" d="M208.67,154.64l-5.19-12.89s-1.78-3.7,1.48-2.67,16.59,4.15,16.59,4.15c0,0,1.93-.15,2.67-1.63s8.59-17.78,8.59-17.78c0,0,1.78-4.59,4,0"/>
      <path class="cls-7" d="M260.99,154.66l5.19-12.89s1.78-3.7-1.48-2.67-16.59,4.15-16.59,4.15c0,0-1.93-.15-2.67-1.63s-8.59-17.78-8.59-17.78c0,0-1.78-4.59-4,0"/>
    </g>
  </g>
  <g id="text">
    <text class="cls-4" transform="translate(43.59 238.67) scale(1.02 1.11)"><tspan class="cls-18" x="0" y="0">H</tspan><tspan class="cls-12" x="30.55" y="0">A</tspan><tspan class="cls-18" x="56.52" y="0">YDEN BURNELL</tspan></text>
    <text class="cls-3" transform="translate(163.87 287.01) scale(1.02 1.11)"><tspan class="cls-1" x="0" y="0">E</tspan><tspan class="cls-20" x="18.74" y="0">S</tspan><tspan class="cls-15" x="38.5" y="0">T</tspan><tspan class="cls-13" x="52.95" y="0">. 2000 </tspan></text>
    <text class="cls-5" transform="translate(265.93 488.94) scale(1.02 1.11)"><tspan x="0" y="0" xml:space="preserve">  </tspan></text>
  </g>
</svg>